<?xml version="1.0" encoding="UTF-8"?>
<svg width="200" height="150" data-name="Layer 1" viewBox="0 0 998.28 697.55" xmlns="http://www.w3.org/2000/svg">
<title>file_manager</title>
<rect x="149.67" y="24" width="103" height="120" fill="#f2f2f2"/>
<rect x="427.67" y="94" width="103" height="120" fill="#f2f2f2"/>
<rect x="706.67" y="24" width="103" height="120" fill="#f2f2f2"/>
<rect x="228.62" y="430.34" width="270.99" height="67.57" fill="#3f3d56"/>
<polygon points="784.2 696.3 545.44 696.3 612.49 580.17 664.82 489.53" fill="#3f3d56"/>
<rect x="136.94" y="515.85" width="396.84" height="180.5" fill="#3f3d56"/>
<circle cx="664.4" cy="442.31" r="47.055" fill="#c3a29c"/>
<rect x="1.5644" y="695.55" width="860.79" height="2" fill="#3f3d56"/>
<polygon points="499.61 434.87 499.61 497.91 435.8 497.91 474.8 430.34 497 430.34" opacity=".1"/>
<polygon points="533.78 515.85 533.78 696.35 321.23 696.35 321.43 696 425.44 515.85" opacity=".1"/>
<polygon points="679.54 696.3 545.44 696.3 612.49 580.17 615.49 585.36" opacity=".1"/>
<polygon points="664.63 696.45 335.17 696.45 335.43 696 443.48 508.85 499.9 411.12 600.49 585.36 664.54 696.3" fill="#c3a29c"/>
<circle cx="499.4" cy="393.31" r="20.268" fill="#3f3d56"/>
<path transform="translate(-100.86 -101.22)" d="m544.3 500.99a368.02 368.02 0 0 1-120.72-20.265c-52.052-17.997-94.695-42.821-126.74-73.782-60.621-58.566-110.32-67.392-141.33-64.486-33.57 3.1475-53.111 20.338-53.304 20.511l-1.3354-1.4888c0.19726-0.17725 20.141-17.758 54.323-21.001 20.045-1.9009 41.008 1.4111 62.307 9.8472 26.561 10.52 53.723 29.085 80.733 55.179 31.836 30.757 74.231 55.429 126.01 73.33 95.047 32.861 202.17 24.905 293.9-21.829 30.371-15.475 60.389-26.037 89.218-31.394 36.354-6.7568 70.83-5.1885 102.48 4.6582 69.549 21.637 117.05 20.49 144.66 15.719 29.784-5.148 43.298-15.451 43.431-15.554l1.2285 1.5786c-0.55957 0.43506-14.046 10.714-44.319 15.946-27.822 4.8096-75.667 5.9746-145.59-15.781-70.801-22.024-142.51 2.312-190.2 26.608a383.88 383.88 0 0 1-145.64 41.085q-14.603 1.1177-29.102 1.1182z" fill="#3f3d56"/>
<path transform="translate(-100.86 -101.22)" d="m318.51 424.57-1.4312-1.397a73.107 73.107 0 0 0 14.662-25.651c4.8657-14.643 7.2427-37.769-9.0679-64.783-16.688-27.64-17.439-50.089-15.131-64.055 2.5122-15.196 8.9209-23.714 9.1924-24.069l1.5894 1.2144c-0.064 0.08349-6.417 8.5562-8.8276 23.299-2.2256 13.611-1.4492 35.517 14.889 62.577 16.728 27.705 14.25 51.473 9.2256 66.533-5.4438 16.317-14.708 25.931-15.101 26.332z" fill="#3f3d56"/>
<path transform="translate(-100.86 -101.22)" d="m393.53 246.22h-144v-144h144zm-142-2h140v-140h-140z" fill="#3f3d56"/>
<path transform="translate(-100.86 -101.22)" d="m597.51 495.57-1.4316-1.3965a73.122 73.122 0 0 0 14.662-25.65c4.8662-14.644 7.2422-37.77-9.0684-64.784-16.688-27.64-17.438-50.089-15.13-64.055 2.5117-15.196 8.9199-23.714 9.1924-24.069l1.5889 1.2144c-0.06348 0.08349-6.417 8.5562-8.8281 23.299-2.2256 13.611-1.4492 35.517 14.89 62.577 16.728 27.705 14.249 51.473 9.2246 66.534-5.4434 16.317-14.708 25.93-15.1 26.331z" fill="#3f3d56"/>
<path transform="translate(-100.86 -101.22)" d="m672.53 317.22h-144v-144h144zm-142-2h140v-140h-140z" fill="#3f3d56"/>
<path transform="translate(-100.86 -101.22)" d="m875.51 423.57-1.4316-1.397a73.115 73.115 0 0 0 14.662-25.651c4.8662-14.643 7.2422-37.769-9.0684-64.783-16.688-27.64-17.438-50.089-15.13-64.055 2.5117-15.196 8.9199-23.714 9.1924-24.069l1.5889 1.2144c-0.06348 0.08349-6.417 8.5562-8.8281 23.299-2.2256 13.611-1.4492 35.517 14.89 62.577 16.728 27.705 14.249 51.473 9.2246 66.533-5.4434 16.317-14.708 25.931-15.1 26.332z" fill="#3f3d56"/>
<path transform="translate(-100.86 -101.22)" d="m950.53 245.22h-144v-144h144zm-142-2h140v-140h-140z" fill="#3f3d56"/>
<rect x="178.67" y="43" width="88" height="2" fill="#3f3d56"/>
<rect x="178.67" y="65" width="88" height="2" fill="#3f3d56"/>
<rect x="178.67" y="87" width="88" height="2" fill="#3f3d56"/>
<rect x="455.67" y="111" width="88" height="2" fill="#3f3d56"/>
<rect x="455.67" y="133" width="88" height="2" fill="#3f3d56"/>
<rect x="455.67" y="155" width="88" height="2" fill="#3f3d56"/>
<rect x="733.67" y="43" width="88" height="2" fill="#3f3d56"/>
<rect x="733.67" y="65" width="88" height="2" fill="#3f3d56"/>
<rect x="733.67" y="87" width="88" height="2" fill="#3f3d56"/>
<path transform="translate(-100.86 -101.22)" d="m922.28 765.38c5.391 19.928 23.856 32.27 23.856 32.27s9.7248-19.968 4.3338-39.896-23.856-32.27-23.856-32.27-9.7248 19.968-4.3338 39.896z" fill="#c3a29c"/>
<path transform="translate(-100.86 -101.22)" d="m930.2 761.09c14.793 14.4 16.6 36.537 16.6 36.537s-22.177-1.2109-36.97-15.611-16.6-36.537-16.6-36.537 22.177 1.2109 36.97 15.611z" fill="#3f3d56"/>
<rect x="191.67" y="558" width="103" height="120" fill="#f2f2f2"/>
<path transform="translate(-100.86 -101.22)" d="m435.53 779.22h-144v-144h144zm-142-2h140v-140h-140z" fill="#fff"/>
<rect x="218.67" y="577" width="88" height="2" fill="#c3a29c"/>
<rect x="218.67" y="599" width="88" height="2" fill="#c3a29c"/>
<rect x="218.67" y="621" width="88" height="2" fill="#c3a29c"/>
<path transform="translate(-100.86 -101.22)" d="m327.4 318.41h-6e-5c-24.032 0-43.514 21.62-43.514 48.291v33.885h10.421l6.0334-12.555-1.5084 12.555h66.985l5.4849-11.413-1.3712 11.413h7.5418v-26.606c0-30.69-22.418-55.57-50.073-55.57z" fill="#2f2e41"/>
<path transform="translate(-100.86 -101.22)" d="m277.54 539.8-26.717 11.355-92.842 75.476a27.326 27.326 0 0 0-6.0113 14.694c-0.66793 8.683-28.721 54.102-18.702 60.113s46.087 24.045 48.091 12.023 12.691-63.453 12.691-63.453l89.502-80.151z" fill="#2f2e41"/>
<path transform="translate(-100.86 -101.22)" d="m172.67 703.44-11.355 33.396s12.023 12.691 6.0113 23.377v36.736h-9.351l-2.6717-19.37s-10.651 19.125-16.03 19.37c-11.277 0.513-33.609 4.5243-34.277-1.487s16.911-11.872 16.911-11.872l18.702-51.43 8.0151-31.393z" fill="#2f2e41"/>
<path transform="translate(-100.86 -101.22)" d="m347 531.11s6.0113 58.778-11.355 69.464-94.178 44.751-94.178 44.751 32.728 30.725 26.049 38.072-36.736 27.385-40.744 23.377-48.759-52.098-43.415-67.461 79.483-65.457 79.483-65.457l8.683-31.393 2.6717-25.381 28.053-18.034z" fill="#2f2e41"/>
<circle cx="215.54" cy="265.19" r="27.845" fill="#ffb9b9"/>
<path transform="translate(-100.86 -101.22)" d="m337.99 377.82s-1.3358 25.381 19.37 33.396-51.43 60.113-51.43 60.113v-58.11s9.351-10.019 0-25.381z" fill="#ffb9b9"/>
<path transform="translate(-100.86 -101.22)" d="m382.4 497.05-5.3434 26.049-16.03 89.502s13.359 38.072-4.6755 37.404-9.351-41.411-9.351-41.411l9.351-74.14v-28.721z" fill="#ffb9b9"/>
<path transform="translate(-100.86 -101.22)" d="m267.52 484.36-6.0114 23.377-27.385 66.125s-18.702 31.393-3.3396 30.725 15.362-30.725 15.362-30.725l31.393-53.434v-30.057z" fill="#ffb9b9"/>
<path transform="translate(-100.86 -101.22)" d="m262.84 679.39 22.042 20.706s15.362-3.3396 21.374 14.694 10.019 29.389 10.019 29.389l-8.0151 4.6755-10.019-14.026s-6.0114 25.381-12.023 27.385-36.068 15.362-33.396 0l14.694-21.374s2.0038-24.045-4.0076-26.049-22.042-22.042-22.042-22.042z" fill="#2f2e41"/>
<path transform="translate(-100.86 -101.22)" d="m348.06 551.82s-62.785-22.71-66.793-20.706a30.12 30.12 0 0 1-9.4079 2.4418l0.057-9.121s20.706-7.3472 32.061-2.6717 46.087 25.381 46.087 25.381z" fill="#3f3d56"/>
<path transform="translate(-100.86 -101.22)" d="m309.93 457.98s18.034-20.706 23.377-33.396a32.791 32.791 0 0 1 17.335-17.046s40.106 9.031 39.439 25.061-25.381 40.744-25.381 40.744 3.3396 88.834-14.694 87.498a38.682 38.682 0 0 1-8.0151-16.03c-2.0038-9.351-64.121-19.37-64.121-19.37s-5.3434 9.351-6.0114 5.3434 5.3434-102.19 5.3434-102.19l31.851-21.054z" fill="#d0cde1"/>
<path transform="translate(-100.86 -101.22)" d="m384.94 426.14 0.44725 0.251a9.215 9.215 0 0 1 4.7053 8.0374l-0.00685 49.569a9.2877 9.2877 0 0 0 3.3039 7.0688c2.5729 2.1885 4.9588 5.3421 0.03509 6.9833-8.0151 2.6717-39.408 16.03-40.076 11.355s-2.0038-10.019 0-10.019c1.5687 0 10.915-47.896 18.426-68.374a9.2164 9.2164 0 0 1 13.165-4.8709z" fill="#d0cde1"/>
<path transform="translate(-100.86 -101.22)" d="m286.22 426.25-9.351 2.6717-10.687 46.087s-12.691 2.6717-8.683 7.3472 20.706 16.698 20.706 16.698z" fill="#d0cde1"/>
<path transform="translate(-100.86 -101.22)" d="m339.77 331.71a22.821 22.821 0 0 0-18.006-9.1888h-0.8543c-16.472 0-29.824 14.905-29.824 33.291v7e-5h5.5192l0.89134-6.7845 1.3069 6.7845h32.734l2.7425-5.7398-0.68564 5.7398h6.4397q4.5075 22.385-12.953 44.771h10.97l5.4849-11.48-1.3712 11.48h20.911l4.1137-26.403c-1e-5 -19.774-11.489-36.541-27.419-42.47z" fill="#2f2e41"/>
<rect x="311.14" y="430.34" width="104" height="33.9" opacity=".1"/>
<rect x="317.14" y="401.24" width="94" height="58" fill="#c3a29c"/>
</svg>
