<?xml version="1.0" encoding="UTF-8"?>
<svg width="200" height="150" data-name="Layer 1" viewBox="0 0 1020 612" xmlns="http://www.w3.org/2000/svg">
<title>online_organizer</title>
<path transform="translate(-290 -244)" d="m569.76 855.2-26.492-74.178s29.142 14.571 30.466 33.115c0 0-6.6231-92.723-19.869-112.59 0 0 21.194 2.6492 45.037 105.97 0 0 3.9738-119.22-31.791-153.66 0 0 49.011 39.738 52.985 125.84v75.503z" fill="#f2f2f2"/>
<path transform="translate(-290 -244)" d="m1066.6 855.2-6.3698-17.835s7.0068 3.5034 7.3253 7.9623c0 0-1.5924-22.294-4.7774-27.072 0 0 5.0958 0.637 10.829 25.479 0 0 0.95547-28.664-7.6438-36.945 0 0 11.784 9.5547 12.74 30.257v18.154z" fill="#f2f2f2"/>
<circle cx="658.58" cy="341.34" r="116.46" fill="#f2f2f2"/>
<rect y="8.8346" width="274.68" height="152.6" fill="#f2f2f2"/>
<rect x="372.66" y="8.8346" width="274.68" height="152.6" fill="#f2f2f2"/>
<rect x="745.32" y="8.8346" width="274.68" height="152.6" fill="#f2f2f2"/>
<path transform="translate(-290 -244)" d="m996.09 855.62c-0.18431-0.30118-4.5303-7.5578-6.037-22.626-1.382-13.825-0.49334-37.127 11.592-69.632 22.894-61.578-5.2762-111.26-5.564-111.76l1.3898-0.80628c0.07294 0.12549 7.3421 12.793 11.636 32.964a143.81 143.81 0 0 1-5.9562 80.16c-22.855 61.473-5.8636 90.574-5.6895 90.861z" fill="#3f3d56"/>
<circle cx="697.13" cy="393.54" r="10.441" fill="#c3a29c"/>
<circle cx="730.06" cy="432.09" r="10.441" fill="#3f3d56"/>
<circle cx="707.57" cy="457.8" r="10.441" fill="#c3a29c"/>
<circle cx="734.88" cy="479.48" r="10.441" fill="#c3a29c"/>
<circle cx="699.54" cy="513.21" r="10.441" fill="#3f3d56"/>
<path transform="translate(-290 -244)" d="m1002.4 856s-10.441-25.701 20.882-44.976z" fill="#3f3d56"/>
<path transform="translate(-290 -244)" d="m989.55 855.53s-4.7518-27.331-41.53-27.096z" fill="#3f3d56"/>
<rect x=".40157" width="273.87" height="13.654" fill="#3f3d56"/>
<rect x="373.06" width="274.68" height="13.654" fill="#3f3d56"/>
<rect x="745.72" width="273.87" height="13.654" fill="#3f3d56"/>
<rect x="20.882" y="34.937" width="49.795" height="35.339" fill="#fff"/>
<rect x="116.46" y="34.937" width="137.34" height="4.0158" fill="#fff"/>
<rect x="116.46" y="51" width="137.34" height="4.0158" fill="#fff"/>
<rect x="116.46" y="67.063" width="137.34" height="4.0158" fill="#fff"/>
<rect x="393.54" y="34.937" width="49.795" height="35.339" fill="#fff"/>
<rect x="489.12" y="34.937" width="137.34" height="4.0158" fill="#fff"/>
<rect x="489.12" y="51" width="137.34" height="4.0158" fill="#fff"/>
<rect x="489.12" y="67.063" width="137.34" height="4.0158" fill="#fff"/>
<rect x="766.2" y="34.937" width="49.795" height="35.339" fill="#fff"/>
<rect x="861.78" y="34.937" width="137.34" height="4.0158" fill="#fff"/>
<rect x="861.78" y="51" width="137.34" height="4.0158" fill="#fff"/>
<rect x="861.78" y="67.063" width="137.34" height="4.0158" fill="#fff"/>
<circle cx="45.78" cy="53.008" r="16.063" fill="#c3a29c"/>
<circle cx="791.1" cy="53.008" r="16.063" fill="#c3a29c"/>
<rect x="126.71" y="161.43" width="1.6063" height="4.8189" fill="#3f3d56"/>
<path transform="translate(-290 -244)" d="m418.32 603.01h-1.6063v-9.6378h1.6063zm0-19.276h-1.6063v-9.6378h1.6063zm0-19.276h-1.6063v-9.6378h1.6063zm0-19.276h-1.6063v-9.6378h1.6063zm0-19.276h-1.6063v-9.6378h1.6063zm0-19.276h-1.6063v-9.6378h1.6063zm0-19.276h-1.6063v-9.6378h1.6063zm0-19.276h-1.6063v-9.6378h1.6063zm0-19.276h-1.6063v-9.6378h1.6063zm0-19.276h-1.6063v-9.6378h1.6063z" fill="#3f3d56"/>
<polygon points="132.34 374.27 126.71 374.27 126.71 368.65 128.32 368.65 128.32 372.66 132.34 372.66" fill="#3f3d56"/>
<path transform="translate(-290 -244)" d="m1158.2 618.27h-9.6817v-1.6063h9.6817zm-19.363 0h-9.6817v-1.6063h9.6817zm-19.363 0h-9.6825v-1.6063h9.6825zm-19.364 0h-9.6817v-1.6063h9.6817zm-19.363 0h-9.6825v-1.6063h9.6825zm-19.364 0h-9.6817v-1.6063h9.6817zm-19.363 0h-9.6825v-1.6063h9.6825zm-19.364 0h-9.6817v-1.6063h9.6817zm-19.363 0h-9.6825v-1.6063h9.6825zm-19.364 0h-9.6818v-1.6063h9.6817zm-19.363 0h-9.6825v-1.6063h9.6825zm-19.364 0h-9.6817v-1.6063h9.6817zm-19.363 0h-9.6825v-1.6063h9.6825zm-19.364 0h-9.6817v-1.6063h9.6817zm-19.363 0h-9.6825v-1.6063h9.6825zm-19.364 0h-9.6817v-1.6063h9.6817zm-19.363 0h-9.6825v-1.6063h9.6825zm-19.364 0h-9.6817v-1.6063h9.6817zm-19.363 0h-9.6821v-1.6063h9.6821zm-19.364 0h-9.6821v-1.6063h9.6821zm-19.364 0h-9.6821v-1.6063h9.6821zm-19.364 0h-9.6821v-1.6063h9.6821zm-19.364 0h-9.6821v-1.6063h9.6821zm-19.364 0h-9.6821v-1.6063h9.6821zm-19.364 0h-9.6821v-1.6063h9.6821zm-19.364 0h-9.6821v-1.6063h9.6821zm-19.364 0h-9.6821v-1.6063h9.6821zm-19.364 0h-9.6821v-1.6063h9.6821zm-19.364 0h-9.6821v-1.6063h9.6821zm-19.364 0h-9.6821v-1.6063h9.6821zm-19.364 0h-9.6821v-1.6063h9.6821zm-19.364 0h-9.6817v-1.6063h9.6817zm-19.364 0h-9.6817v-1.6063h9.6817zm-19.364 0h-9.6817v-1.6063h9.6817zm-19.364 0h-9.6817v-1.6063h9.6817zm-19.364 0h-9.6817v-1.6063h9.6817zm-19.364 0h-9.6817v-1.6063h9.6817zm-19.364 0h-9.6817v-1.6063h9.6817z" fill="#3f3d56"/>
<polygon points="883.46 374.27 877.84 374.27 877.84 372.66 881.86 372.66 881.86 368.65 883.46 368.65" fill="#3f3d56"/>
<path transform="translate(-290 -244)" d="m1173.5 603.01h-1.6063v-9.6378h1.6063zm0-19.276h-1.6063v-9.6378h1.6063zm0-19.276h-1.6063v-9.6378h1.6063zm0-19.276h-1.6063v-9.6378h1.6063zm0-19.276h-1.6063v-9.6378h1.6063zm0-19.276h-1.6063v-9.6378h1.6063zm0-19.276h-1.6063v-9.6378h1.6063zm0-19.276h-1.6063v-9.6378h1.6063zm0-19.276h-1.6063v-9.6378h1.6063zm0-19.276h-1.6063v-9.6378h1.6063z" fill="#3f3d56"/>
<rect x="881.86" y="161.43" width="1.6063" height="4.8189" fill="#3f3d56"/>
<rect x="372.66" y="325.28" width="274.68" height="285.92" fill="#3f3d56"/>
<rect x="393.54" y="362.62" width="49.795" height="35.339" fill="#fff"/>
<rect x="489.12" y="362.62" width="137.34" height="4.0158" fill="#fff"/>
<rect x="489.12" y="378.69" width="137.34" height="4.0158" fill="#fff"/>
<rect x="489.12" y="394.75" width="137.34" height="4.0158" fill="#fff"/>
<rect x="393.54" y="489.92" width="49.795" height="35.339" fill="#fff"/>
<rect x="489.12" y="489.92" width="137.34" height="4.0158" fill="#fff"/>
<rect x="489.12" y="505.98" width="137.34" height="4.0158" fill="#fff"/>
<rect x="489.12" y="522.05" width="137.34" height="4.0158" fill="#fff"/>
<polygon points="418.65 389.23 401.61 366.5 405.64 363.48 419.53 381.99 454.92 353.32 458.12 357.23" fill="#c3a29c"/>
<polygon points="418.65 515.32 401.61 492.6 405.64 489.57 419.53 508.08 454.92 479.42 458.12 483.32" fill="#c3a29c"/>
<rect x="7.2284" y="610.39" width="991.89" height="1.6063" fill="#3f3d56"/>
<path transform="translate(-290 -244)" d="m834.57 414.27s26.504-11.549 38.953 0.65077-33.331 8.1839-38.953-0.65077z" fill="#3f3d56"/>
<path transform="translate(-290 -244)" d="m880.34 359.5c-8.9068-15.05-26.528-15.751-26.528-15.751s-17.171-2.1958-28.186 20.725c-10.267 21.364-24.437 41.992-2.2812 46.993l4.0019-12.456 2.4784 13.383a86.686 86.686 0 0 0 9.4795 0.162c23.727-0.766 46.323 0.22413 45.595-8.29-0.96717-11.318 4.0106-30.285-4.5595-44.766z" fill="#2f2e41"/>
<path transform="translate(-290 -244)" d="m892.8 632.32s-11.244 20.882-18.472 20.882-6.4252 13.654-4.8189 16.866 5.622 10.441-0.80315 20.882c-2.2443 3.647-1.8428 7.784-0.37009 11.624 4.1265 10.758 20.178 7.4989 19.666-4.0122q-0.00848-0.19035-0.02051-0.38311c-0.80315-12.85 5.622-32.929 12.047-37.748s12.047-17.669 12.047-17.669z" fill="#ffb8b8"/>
<path transform="translate(-290 -244)" d="m815.7 627.5s11.244 20.882 18.472 20.882 6.4252 13.654 4.8189 16.866-5.622 10.441 0.80315 20.882c2.2443 3.647 1.8428 7.784 0.37009 11.624-4.1265 10.758-20.178 7.4989-19.666-4.0122q0.00847-0.19035 0.02051-0.38311c0.80315-12.85-5.622-32.929-12.047-37.748s-12.047-17.669-12.047-17.669z" fill="#ffb8b8"/>
<path transform="translate(-290 -244)" d="m824.53 524.7-4.8189 10.441s-70.677 23.291-64.252 50.598 37.748 69.874 42.567 68.268 30.52-6.4252 31.323-20.079-18.472-37.748-18.472-37.748l26.504-24.094 38.568-0.80315 32.913 24.898s-34.535 30.52-19.276 42.567 37.748 20.079 40.961 15.26 39.354-76.299 33.732-82.724-62.646-30.52-62.646-30.52l-15.26-21.685-59.433-3.2126z" fill="#2f2e41"/>
<path transform="translate(-290 -244)" d="m838.99 392.18s4.0158 26.504-4.0158 29.717 16.063 16.866 16.063 16.866h13.654l8.8346-18.472s-8.0315-14.457-3.2126-28.11-31.323 0-31.323 0z" fill="#ffb8b8"/>
<path transform="translate(-290 -244)" d="m838.99 392.18s4.0158 26.504-4.0158 29.717 16.063 16.866 16.063 16.866h13.654l8.8346-18.472s-8.0315-14.457-3.2126-28.11-31.323 0-31.323 0z" opacity=".1"/>
<path transform="translate(-290 -244)" d="m833.37 414.67s8.8346 9.6378 10.441 11.244 8.8346 10.441 24.094-2.4094 16.866 2.4094 16.866 2.4094v96.378s-12.85-5.622-23.291 0-32.126-1.6063-32.126-1.6063l-4.0158-99.591z" fill="#fff"/>
<path transform="translate(-290 -244)" d="m839.27 414.67s-7.5058-3.2126-13.931 0-28.913 19.276-27.307 26.504 22.488 57.827 8.0315 81.921-16.866 30.52-16.866 30.52l35.339-18.472s27.307-16.866 24.898-27.307-10.164-93.165-10.164-93.165z" fill="#c3a29c"/>
<path transform="translate(-290 -244)" d="m871.13 414.67s16.857 1.6063 17.66 3.2126 25.299 8.4331 23.693 15.661-23.693 71.882-14.055 83.929 25.701 28.913 20.079 30.52-15.26-2.4094-24.898 0-32.126-17.669-29.717-39.354 0.01894-88.346 7.2378-93.969z" fill="#c3a29c"/>
<path transform="translate(-290 -244)" d="m830.96 568.07v8.0315s-4.0158 18.472 8.8346 17.669 4.8189-22.488 4.8189-22.488l-0.80315-7.2283z" fill="#ffb8b8"/>
<path transform="translate(-290 -244)" d="m867.1 568.87s-8.8346 18.472 0 20.079 15.26-10.441 15.26-13.654-15.26-6.4252-15.26-6.4252z" fill="#ffb8b8"/>
<ellipse cx="588.75" cy="137.34" rx="1.6063" ry="3.2126" fill="#ffb8b8"/>
<ellipse cx="541.36" cy="137.34" rx="1.6063" ry="3.2126" fill="#ffb8b8"/>
<path transform="translate(-290 -244)" d="m892.8 425.11s20.079 0 19.276 8.0315-27.307 146.17-27.307 146.17-11.244-10.441-20.882-8.0315z" fill="#c3a29c"/>
<path transform="translate(-290 -244)" d="m814.9 427.52s-20.079 4.0157-20.079 16.063 28.913 127.7 32.929 127.7 19.276-2.4094 19.276-6.4252-32.126-137.34-32.126-137.34z" fill="#c3a29c"/>
<path transform="translate(-290 -244)" d="m819.31 451.21 18.071 70.67s-8.433-61.835-18.071-70.67z" opacity=".2"/>
<path transform="translate(-290 -244)" d="m889.6 441.28-18.276 92.397s5.8412-87.067 18.276-92.397z" opacity=".2"/>
<circle cx="565.05" cy="137.74" r="23.291" fill="#ffb8b8"/>
<polygon points="586.4 114.05 568.99 104.93 544.95 108.66 539.98 130.63 552.36 130.15 555.82 122.08 555.82 130.02 561.53 129.8 564.85 116.95 566.92 130.63 587.23 130.21" fill="#2f2e41"/>
</svg>
