<?xml version="1.0" encoding="UTF-8"?>
<svg width="200" height="150" data-name="Layer 1" viewBox="0 0 816.36 662.16" xmlns="http://www.w3.org/2000/svg">
<title>certification</title>
<path transform="translate(-191.82 -118.92)" d="m741.83 727.02a836.67 836.67 0 0 1-113.62-7.4446c-1.2292-0.15691-2.4756-0.33251-3.7138-0.51706-9.2438-1.3146-18.492-2.817-27.483-4.4666-40.461-7.3991-78.616-18.206-113.41-32.122-115.77-46.309-188.56-36.453-229.24-20.031-44.021 17.773-60.942 46.851-61.108 47.142l-1.4479-0.82194c0.16788-0.29593 17.308-29.807 61.809-47.814 26.092-10.558 56.361-15.172 89.973-13.719 41.956 1.817 89.271 13.154 140.63 33.697 34.686 13.875 72.734 24.652 113.09 32.031 8.9694 1.6447 18.196 3.1447 27.424 4.456 1.2325 0.18374 2.4674 0.35772 3.6934 0.51463 102.08 14.042 200.56 5.5739 265.2-4.0016 53.28-7.8926 87.568-17.121 87.909-17.213l0.43577 1.6065c-0.34065 0.09268-34.715 9.3454-88.1 17.253a1049.8 1049.8 0 0 1-152.05 11.449z" fill="#3f3d56"/>
<path transform="translate(-191.82 -118.92)" d="m741.94 249.19c-29.349 4e-4 -57.922-1.3732-85.489-4.1186-63.347-6.3088-121.5-19.921-172.84-40.458-115.77-46.309-188.56-36.454-229.24-20.031-44.021 17.772-60.942 46.85-61.108 47.142l-1.4479-0.82194c0.16788-0.29593 17.308-29.806 61.809-47.814 26.092-10.558 56.361-15.175 89.973-13.719 41.956 1.8166 89.271 13.154 140.63 33.697 115.95 46.381 244.98 48.204 332.8 41.571 95.19-7.1926 163.83-25.599 164.51-25.784l0.43577 1.6065c-0.68292 0.18577-69.445 18.628-164.78 25.835-25.527 1.9296-50.663 2.8943-75.252 2.8943z" fill="#3f3d56"/>
<path transform="translate(-191.82 -118.92)" d="m737.63 126.97s-32.731-11.69-53.773 35.069-53.773 98.194-53.773 98.194l18.704 4.6759s4.6759-32.731 16.366-37.407l-4.6759 42.083s140.28 49.097 203.4-4.6759l-2.3379-16.366s9.3518 2.3379 9.3518 16.366l7.0138-7.0138s-7.0138-14.028-28.055-32.731c-13.811-12.276-18.557-35.632-20.188-50.234a60.789 60.789 0 0 0-13.995-33.104c-13.983-16.206-39.462-33.43-78.039-14.856z" fill="#2f2e41"/>
<path transform="translate(-191.82 -118.92)" d="m936.29 391.56s61.593 52.535 70.651 83.332-34.42 34.42-34.42 34.42l-94.201 9.0579s-1.8116 43.478-18.116 48.912-3.31-71.897-3.31-71.897l92.077-25.928-41.666-43.478z" fill="#fbbebe"/>
<path transform="translate(-191.82 -118.92)" d="m648.25 445.91-7.2463 96.013-39.854 163.04s-36.231 74.274-5.4347 76.086 28.985-70.651 28.985-70.651l57.97-153.98 5.4347-105.07z" fill="#fbbebe"/>
<circle cx="557.88" cy="98.73" r="59.782" fill="#fbbebe"/>
<path transform="translate(-191.82 -118.92)" d="m722.52 246.63s21.739 77.897-12.681 97.825 86.955 34.42 119.56-25.362c0 0-57.97-19.927-41.666-72.463z" fill="#fbbebe"/>
<path transform="translate(-191.82 -118.92)" d="m680.86 353.52-10.869-3.6231s-21.739 9.0578-21.739 25.362-3.6231 81.521-3.6231 81.521l48.912 5.4347z" fill="#c3a29c"/>
<path transform="translate(-191.82 -118.92)" d="m893.76 714.75c-66.875 9.9068-164.35 17.907-265.43 4.0044-0.00833-0.999-0.00833-1.973-0.00833-2.9221q0-8.4791 0.64933-16.767c5.1782-68.033 40.227-124.75 53.788-144.41 0.68261-0.999 1.3153-1.8981 1.8814-2.6973 2.1895-3.072 3.4633-4.6954 3.4633-4.6954s105.07-1.715 159.42 20.022a23.376 23.376 0 0 1 7.0763 4.6287c20.263 18.698 32.168 79.405 39.161 142.83z" fill="#2f2e41"/>
<path transform="translate(-191.82 -118.92)" d="m854.77 328.16s23.55-12.681 47.101 14.493l47.101 54.347-36.231 39.854-68.84-41.666z" fill="#c3a29c"/>
<path transform="translate(-191.82 -118.92)" d="m685.1 218.03c21.163-15.316 38.294-32.957 49.627-53.942 0 0 38.838 43.154 62.573 45.311s2.1577-51.784 2.1577-51.784l-43.154-10.788-40.996 4.3154-32.365 21.577z" fill="#2f2e41"/>
<path transform="translate(-191.82 -118.92)" d="m820.35 315.47s-25.352 40.084-101.44 20.948l-48.917 13.472s5.4347 108.69 19.927 128.62 10.869 30.797 7.2463 32.608-12.681-1.8116-7.2463 7.2463 12.681 3.6231 5.4347 9.0578-10.869 25.362-10.869 25.362l170.29 21.739s-5.4347-70.651 9.0578-106.88 18.116-50.724 18.116-50.724l-10.869-90.578z" fill="#c3a29c"/>
<rect x="41.517" y="161.09" width="233.1" height="291.38" fill="#e6e6e6"/>
<rect x="57.751" y="185.65" width="49.951" height="33.3" fill="#fff"/>
<rect x="58.167" y="250.59" width="193.14" height="11.655" fill="#fff"/>
<rect x="58.167" y="281.39" width="193.14" height="11.655" fill="#fff"/>
<rect x="58.167" y="312.19" width="193.14" height="11.655" fill="#fff"/>
<rect x="58.167" y="342.99" width="193.14" height="11.655" fill="#fff"/>
<rect x="58.167" y="373.8" width="193.14" height="11.655" fill="#fff"/>
<path transform="translate(-191.82 -118.92)" d="m512.23 570.97a45.659 45.659 0 1 1-7.0763-24.459 45.783 45.783 0 0 1 7.0763 24.459z" fill="#c3a29c"/>
<path transform="translate(-191.82 -118.92)" d="m505.15 546.51-45.072 45.064c-2.8328-4.3856-18.615-24.767-18.615-24.767a63.866 63.866 0 0 1 6.4603-5.7027l13.087 17.449 38.862-38.862a45.599 45.599 0 0 1 5.2781 6.8182z" fill="#fff"/>
</svg>
