<?xml version="1.0" encoding="UTF-8"?>
<svg width="200" height="150" data-name="Layer 1" viewBox="0 0 928.53 635.21" xmlns="http://www.w3.org/2000/svg">
<circle cx="546.41" cy="233" r="233" fill="#f2f2f2"/>
<path transform="translate(-135.74 -132.39)" d="m267.15 695.74a39.063 39.063 0 0 0 37.721-6.6448c13.212-11.089 17.354-29.359 20.725-46.275l9.9692-50.036-20.872 14.371c-15.01 10.335-30.357 21.001-40.75 35.971s-14.929 35.405-6.5788 51.603" fill="#e6e6e6"/>
<path transform="translate(-135.74 -132.39)" d="m268.93 756.32c-2.1125-15.387-4.2847-30.973-2.8029-46.525 1.316-13.812 5.5299-27.303 14.109-38.364a63.82 63.82 0 0 1 16.374-14.837c1.6374-1.0335 3.1444 1.5614 1.5142 2.5904a60.672 60.672 0 0 0-23.999 28.956c-5.2249 13.289-6.0639 27.776-5.1636 41.893 0.54449 8.5372 1.6985 17.019 2.8613 25.489a1.5543 1.5543 0 0 1-1.0477 1.8452 1.5092 1.5092 0 0 1-1.8452-1.0477z" fill="#f2f2f2"/>
<path transform="translate(-135.74 -132.39)" d="m408.73 735.12a22.264 22.264 0 0 0 20.462 7.6062c9.6925-1.6439 16.995-9.4324 23.529-16.778l19.325-21.728-14.405 1.0497c-10.359 0.75491-20.98 1.5752-30.405 5.9397s-17.546 13.104-18.109 23.476" fill="#e6e6e6"/>
<path transform="translate(-135.74 -132.39)" d="m392.15 765.42c3.3968-8.1746 6.8213-16.463 12.033-23.683 4.6285-6.4118 10.589-11.83 17.996-14.796a36.374 36.374 0 0 1 12.328-2.5754c1.103-0.03617 1.096 1.6741-0.00222 1.7101a34.579 34.579 0 0 0-20.146 7.3194c-6.3997 5.028-10.988 11.909-14.615 19.11-2.1932 4.3545-4.0706 8.8572-5.9404 13.357a0.88586 0.88586 0 0 1-1.047 0.60523 0.86012 0.86012 0 0 1-0.60523-1.047z" fill="#f2f2f2"/>
<path transform="translate(-135.74 -132.39)" d="m289.28 729.09a28.755 28.755 0 0 0 25.055 12.931c12.683-0.60208 23.257-9.4541 32.775-17.858l28.153-24.857-18.633-0.89169c-13.4-0.64126-27.145-1.2394-39.908 2.8928s-24.533 14.077-26.867 27.287" fill="#e6e6e6"/>
<path transform="translate(-135.74 -132.39)" d="m262.96 765.16c10.168-17.991 21.961-37.986 43.035-44.377a48.022 48.022 0 0 1 18.101-1.869c1.9218 0.16571 1.4419 3.1281-0.4764 2.9627a44.614 44.614 0 0 0-28.886 7.6423c-8.1449 5.544-14.487 13.252-19.854 21.425-3.2878 5.0066-6.2328 10.226-9.1783 15.438-0.94134 1.6656-3.6928 0.46328-2.7405-1.2218z" fill="#f2f2f2"/>
<path transform="translate(-135.74 -132.39)" d="m702.07 458.08c20.217-11.112 45.379-8.8816 67.161-1.2845s41.522 20.043 62.675 29.249c64.64 28.131 142.55 23.595 203.49-11.848 5.7634 13.406-0.41945 28.74-7.2111 41.656s-14.532 26.914-11.736 41.236c3.5776 18.327 22.793 29.315 30.579 46.288 7.3909 16.112 3.4239 35.032-2.2462 51.827s-13.028 33.715-12.065 51.415 13.823 36.416 31.549 36.43c-26.269 4.0817-53.056 8.1663-79.309 3.9832s-52.369-18.068-64.558-41.693c-6.0928-11.809-8.4415-25.386-15.439-36.682-11.918-19.241-34.791-28.289-56.372-35.108s-44.676-13.388-59.871-30.162c-14.478-15.982-19.064-38.246-26.734-58.401a186.54 186.54 0 0 0-64.588-84.23" fill="#c3a29c"/>
<path transform="translate(-135.74 -132.39)" d="m725.49 374.34c-7.097-3.3016-15.81-4.3839-23.032-1.316s-12.145 10.932-9.8095 17.891c1.0587 3.1552 3.4699 6.2584 2.5305 9.445-0.72307 2.4528-3.2455 4.0723-5.7226 5.2237s-5.1869 2.1195-6.9784 4.0616-2.1651 5.2853 0.07286 6.7914c0.73731 0.49618 1.6588 0.7315 2.3738 1.2544a3.772 3.772 0 0 1 1.1643 4.2222 8.8933 8.8933 0 0 1-2.8508 3.7507c-2.5405 2.1909-5.8981 4.6985-5.1092 7.8087a5.4783 5.4783 0 0 0 3.697 3.4579 18.367 18.367 0 0 0 5.4269 0.71626l74.966 2.3616a28.422 28.422 0 0 0 7.4017-0.41344 8.7618 8.7618 0 0 0 5.8129-3.905c1.4356-2.6573 0.4931-5.9306-1.2798-8.4119s-4.282-4.4386-6.3552-6.7171-3.7695-5.1227-3.404-8.0675c0.29256-2.3573 1.8472-4.3947 2.9632-6.5366s1.7643-4.8185 0.31886-6.7889c-2.0368-2.7766-6.9269-2.5255-9.2428-5.1128-1.7478-1.9526-1.4103-4.7635-1.584-7.2814-0.418-6.0566-4.6112-11.776-10.58-14.433a20.831 20.831 0 0 0-18.953 1.2908z" fill="#2f2e41"/>
<polygon points="542.38 622.1 530.64 618.57 538.66 571.6 555.99 576.81" fill="#a0616a"/>
<path transform="translate(-135.74 -132.39)" d="m677.7 766.77-37.859-11.375 0.14386-0.47886a15.386 15.386 0 0 1 19.163-10.309l9.3e-4 2.8e-4 23.123 6.9473z" fill="#2f2e41"/>
<polygon points="653.18 622.5 640.92 622.5 635.09 575.21 653.18 575.21" fill="#a0616a"/>
<path transform="translate(-135.74 -132.39)" d="m792.05 766.77-39.531-0.00147v-0.5a15.386 15.386 0 0 1 15.386-15.386h1e-3l24.144 1e-3z" fill="#2f2e41"/>
<path transform="translate(-135.74 -132.39)" d="m771.9 719.12a4.5005 4.5005 0 0 1-4.4414-3.7881l-18.203-113.55a3.5002 3.5002 0 0 0-6.6882-0.78906l-47.161 113.54a4.5162 4.5162 0 0 1-5.5786 2.5439l-17.034-5.6787a4.4851 4.4851 0 0 1-2.9663-5.2607l38.649-171.02a4.5254 4.5254 0 0 1 3.3718-3.3916l51.833-12.032a4.5623 4.5623 0 0 1 3.7075 0.76953c34.13 24.799 31.247 105.82 24.886 193.8a4.5019 4.5019 0 0 1-4.2944 4.1738l-15.882 0.69141c-0.06592 0.0019-0.13184 0.00385-0.19727 0.00385z" fill="#2f2e41"/>
<circle cx="592.53" cy="282.47" r="24.561" fill="#a0616a"/>
<path transform="translate(-135.74 -132.39)" d="m729.33 542.16a39.899 39.899 0 0 1-17.024-3.9346l-0.18262-0.085-0.07251-0.18848-22.03-57.076-0.41895-9.917a23.772 23.772 0 0 1 25.09-24.74l23.388 1.3174a23.787 23.787 0 0 1 22.437 23.61c0.60742 1.167 4.9214 10.292-3.533 18.865-0.31592 1.9522-3.2732 22.247 7.8867 33.407l0.31372 0.31347-0.27417 0.34864c-0.17773 0.22654-14.51 18.076-35.581 18.079z" fill="#3f3d56"/>
<path transform="translate(-135.74 -132.39)" d="m762.17 546.47a10.056 10.056 0 0 0 5.277-14.488l23.359-27.043-18.414-2.3969-19.359 26.048a10.11 10.11 0 0 0 9.1373 17.88z" fill="#a0616a"/>
<path transform="translate(-135.74 -132.39)" d="m776.78 525.59a4.4892 4.4892 0 0 1-2.4688-0.74024l-11.553-7.5772a4.4913 4.4913 0 0 1-1.3989-6.0644l8.3638-14.052a6.2724 6.2724 0 0 0-2.824-8.9316l-24.028-10.772a14.324 14.324 0 0 1-8.1121-15.915 14.241 14.241 0 0 1 20.432-9.7539l36.452 18.679a19.177 19.177 0 0 1 6.8049 28.289l-18.02 24.97a4.4889 4.4889 0 0 1-3.6484 1.8692z" fill="#3f3d56"/>
<path transform="translate(-135.74 -132.39)" d="m703.14 411.37c7.7564-0.62285 14.196-8.3714 13.39-16.111a13.009 13.009 0 0 0 11.141 13.246c3.5579 0.392 7.4584-0.68444 10.555 1.1105 3.43 1.988 4.5276 6.8158 8.1009 8.5328 3.4526 1.659 7.8377-0.60362 9.5435-4.0333s1.2871-7.5502 0.15669-11.21a31.652 31.652 0 0 0-52.69-12.975c-3.2614 3.2805-5.851 7.4615-6.271 12.068s1.717 9.6054 5.8542 11.675z" fill="#2f2e41"/>
<path transform="translate(-135.74 -132.39)" d="m646 343.34a10.056 10.056 0 0 1 3.1045 15.104l19.159 30.165-18.567-0.31813-15.347-28.596a10.11 10.11 0 0 1 11.651-16.354z" fill="#a0616a"/>
<path transform="translate(-135.74 -132.39)" d="m661.44 364.82 24.674 58.302 25.869 43.864a14.189 14.189 0 0 1-8.1202 20.79 14.265 14.265 0 0 1-16.951-7.5692l-49.857-106.53a4.4999 4.4999 0 0 1 2.6994-6.1915l16.166-5.193a4.6004 4.6004 0 0 1 0.94246-0.19733 4.4742 4.4742 0 0 1 4.5782 2.7273z" fill="#3f3d56"/>
<path transform="translate(-135.74 -132.39)" d="m892.74 767.61h-756a1 1 0 0 1 0-2h756a1 1 0 0 1 0 2z" fill="#ccc"/>
<path transform="translate(-135.74 -132.39)" d="m733.6 240.61v82a1 1 0 1 1-2 0v-82a1 1 0 0 1 2 0z" fill="#ccc"/>
<path transform="translate(-135.74 -132.39)" d="m820.42 310.17-28.284 28.284a1 1 0 0 1-1.4142-1.4142l28.284-28.284a1 1 0 1 1 1.4142 1.4142z" fill="#ccc"/>
<path transform="translate(-135.74 -132.39)" d="m644.77 310.17 28.284 28.284a1 1 0 0 0 1.4142-1.4142l-28.284-28.284a1 1 0 1 0-1.4142 1.4142z" fill="#ccc"/>
</svg>
